# Blender v2.78 (sub 0) OBJ File: 'model.blend'
# www.blender.org
mtllib BuildingModel2.mtl
o Building3_Plane.002
v 2.028317 0.000000 -0.495932
v 2.468910 0.000000 -0.469602
v 1.935284 0.000000 -0.665616
v 2.477686 0.000000 -0.632850
v 1.942305 0.000000 -0.353164
v 1.807143 0.000000 -0.427474
v 1.942305 0.500000 -0.353164
v 2.073956 0.000000 -0.415186
v 2.028317 0.500000 -0.495932
v 2.472420 0.000000 -0.285291
v 2.441994 -0.000000 -0.161831
v 2.051136 -0.000000 -0.307525
v 2.468910 0.500000 -0.469602
v 2.477686 0.500000 -0.632850
v 1.935284 0.500000 -0.665616
v 1.807143 0.500000 -0.427474
v 2.472420 0.500000 -0.285291
v 2.441994 0.500000 -0.161831
v 2.051136 0.500000 -0.307525
v 2.073956 0.500000 -0.415186
v 2.206485 0.500000 -0.649233
v 2.248613 0.500000 -0.482767
v 2.248613 0.000000 -0.482767
v 2.206485 0.000000 -0.649233
vt 0.0001 0.0001
vt 0.9989 0.0001
vt 0.9989 0.9999
vt 0.0001 0.9999
vt 0.0000 0.0000
vt 0.1788 0.0000
vt 0.1788 1.0000
vt 0.0000 1.0000
vt 0.0001 0.0001
vt 0.9915 0.0001
vt 0.9915 0.9999
vt 0.0001 0.9999
vt 0.0001 0.0001
vt 0.1822 0.0026
vt 0.1822 1.0025
vt 0.0001 0.9999
vt 0.0001 0.2512
vt 0.0375 0.0001
vt 0.9999 0.0001
vt 0.9662 0.2915
vt 0.0001 0.9214
vt 0.0219 0.0001
vt 0.6175 0.0001
vt 0.9652 0.9999
vt 0.0001 0.9999
vt 0.1845 0.0081
vt 0.9825 0.0001
vt 0.9825 0.9890
vt 1.0000 1.0000
vt 0.4719 0.0001
vt 0.4719 0.9999
vt 0.0001 0.9999
vt 0.0001 0.0001
vt 0.0001 0.0001
vt 0.1836 0.0001
vt 0.1836 0.9999
vt 0.0001 0.9999
vt 0.0001 0.0001
vt 0.2899 0.0001
vt 0.2899 0.9999
vt 0.0001 0.9999
vt 0.0903 0.0001
vt 0.4741 0.0001
vt 0.4741 0.9999
vt 0.0903 0.9999
vt 0.5741 0.9999
vt 0.5741 0.0001
vt 0.9864 0.0001
vt 0.9864 0.9999
vt 0.1829 0.9999
vt 0.0001 0.9999
vt 0.0001 0.0001
vt 0.1829 0.0001
vt 0.5707 0.0001
vt 0.9861 0.0001
vt 0.9861 0.9999
vt 0.5707 0.9999
vt 0.0001 0.0001
vt 0.4703 0.0001
vt 0.4703 0.9999
vt 0.0001 0.9999
vn -0.3493 0.0000 0.9370
vn -0.9783 0.0000 -0.2074
vn 0.3099 0.0000 -0.9508
vn 0.9709 0.0000 0.2393
vn -0.0000 1.0000 0.0000
vn -0.8806 0.0000 -0.4738
vn -0.4818 0.0000 0.8763
vn 0.8566 0.0000 0.5160
vn -0.0597 -0.0000 0.9982
vn 0.9986 -0.0000 0.0537
vn 0.0603 0.0000 -0.9982
usemtl Material.002
s off
f 12/1/1 11/2/1 18/3/1 19/4/1
f 8/5/2 12/6/2 19/7/2 20/8/2
f 10/9/3 8/10/3 20/11/3 17/12/3
f 11/13/4 10/14/4 17/15/4 18/16/4
usemtl Material.003
f 20/17/5 19/18/5 18/19/5 17/20/5
f 16/21/5 7/22/5 9/23/5 15/24/5
f 21/25/5 22/26/5 13/27/5 14/28/5
f 22/26/5 21/25/5 15/29/5 9/23/5
usemtl Material.003_wallTexture1.png
f 6/30/6 16/31/6 15/32/6 3/33/6
f 6/34/7 5/35/7 7/36/7 16/37/7
f 5/38/8 1/39/8 9/40/8 7/41/8
f 1/42/9 23/43/9 22/44/9 9/45/9
f 22/46/9 23/47/9 2/48/9 13/49/9
f 14/50/10 13/51/10 2/52/10 4/53/10
f 24/54/11 3/55/11 15/56/11 21/57/11
f 4/58/11 24/59/11 21/60/11 14/61/11
o Building2_Plane.001
v 2.286633 0.031991 -1.720750
v 1.591059 0.031991 -1.136005
v 1.600984 0.031991 -1.711652
v 2.311445 0.031991 -0.963972
v 2.045126 0.031991 -0.953220
v 1.987230 0.031991 -0.983822
v 2.286633 0.531991 -1.720750
v 1.940914 0.031991 -0.911866
v 1.761438 0.031991 -1.222021
v 1.763092 0.031991 -1.529694
v 1.940087 0.031991 -1.534657
v 1.966553 0.031991 -1.120290
v 1.930989 0.031991 -1.120290
v 2.311445 0.531991 -0.963972
v 1.966553 0.531991 -1.120290
v 1.600984 0.531991 -1.711652
v 1.591059 0.531991 -1.136005
v 2.045126 0.531991 -0.953220
v 1.987230 0.531991 -0.983822
v 1.940914 0.531991 -0.911866
v 1.761438 0.531991 -1.222021
v 1.763092 0.531991 -1.529694
v 1.940087 0.531991 -1.534657
v 1.930989 0.531991 -1.120290
vt 0.1699 0.4041
vt 0.0001 0.2835
vt 0.0855 0.2833
vt 0.1891 0.3742
vt 0.1641 0.6014
vt 0.0001 0.6983
vt 0.4893 0.9999
vt 0.4237 0.7657
vt 0.5231 0.6196
vt 0.8662 0.4285
vt 0.2434 0.0001
vt 0.0910 0.2182
vt 0.0001 0.0001
vt 0.9999 0.0001
vt 0.9999 1.0062
vt 0.0001 1.0062
vt 0.0001 0.0001
vt 0.9051 0.0001
vt 0.9051 0.9999
vt 0.0001 0.9999
vt 0.0001 0.0001
vt 0.4829 0.0001
vt 0.4829 0.9999
vt 0.0001 0.9999
vt 0.0001 0.0001
vt 0.9980 0.0001
vt 0.9980 0.9999
vt 0.0001 0.9999
vt 0.0000 0.0000
vt 0.0940 0.0000
vt 0.0940 1.0000
vt 0.0000 1.0000
vt 0.0000 0.0000
vt 0.1031 0.0000
vt 0.1031 1.0000
vt 0.0000 1.0000
vt 0.1708 0.0001
vt 0.9904 0.0001
vt 0.9904 0.9999
vt 0.1708 0.9999
vt 0.0000 0.0000
vt 0.0000 0.0000
vt 0.0000 0.0000
vt 0.0000 0.0000
vt 0.0000 0.0000
vt 0.0000 0.0000
vt 0.0000 0.0000
vt 0.0000 0.0000
vt 0.0000 0.0000
vt 0.0000 0.0000
vn 0.0000 1.0000 -0.0000
vn -0.9999 0.0000 -0.0172
vn 0.9995 0.0000 -0.0328
vn 0.0403 0.0000 0.9992
vn -0.5394 0.0000 0.8420
vn -0.4673 0.0000 0.8841
vn 0.8409 0.0000 0.5412
vn -0.0133 0.0000 -0.9999
vn 0.5145 0.0000 -0.8575
vn 0.0280 0.0000 0.9996
vn -0.9980 0.0000 0.0637
vn 0.0000 0.0000 -1.0000
vn 1.0000 0.0000 0.0054
usemtl wall2
s off
f 48/62/12 44/63/12 43/64/12 39/65/12
f 44/63/12 48/62/12 45/66/12 41/67/12
f 40/68/12 41/67/12 45/66/12 46/69/12
f 47/70/12 31/71/12 46/69/12
f 31/71/12 40/68/12 46/69/12
f 38/72/12 31/71/12 47/70/12 39/65/12
f 43/64/12 42/73/12 38/72/12 39/65/12
usemtl wall2_wallTexture1.png
f 27/74/13 26/75/13 41/76/13 40/77/13
f 28/78/14 25/79/14 31/80/14 38/81/14
f 29/82/15 28/83/15 38/84/15 42/85/15
f 26/86/16 32/87/16 44/88/16 41/89/16
f 30/90/17 29/91/17 42/92/17 43/93/17
f 32/94/18 30/95/18 43/96/18 44/97/18
f 25/98/19 27/99/19 40/100/19 31/101/19
usemtl wall2_NONE
f 37/102/20 33/103/20 45/104/20 48/105/20
f 34/106/21 35/107/21 47/108/21 46/109/21
f 35/107/22 36/110/22 39/111/22 47/108/22
f 36/110/23 37/102/23 48/105/23 39/111/23
f 33/103/24 34/106/24 46/109/24 45/104/24
o Building1_Plane
v 0.444581 0.001122 -1.488289
v 0.595095 0.001122 -1.629949
v 0.577387 0.001122 -1.855719
v 1.383078 0.001122 -1.913269
v 1.378651 0.001122 -1.187262
v 1.378651 0.501122 -1.187262
v 1.148454 0.001122 -0.859673
v 0.696200 0.001122 -1.502925
v 0.777483 0.001122 -1.579427
v 0.767921 0.001122 -1.701352
v 1.203025 0.001122 -1.732431
v 1.200634 0.001122 -1.340359
v 1.076319 0.001122 -1.163449
v 1.148454 0.501122 -0.859673
v 0.444581 0.501122 -1.488289
v 0.595095 0.501122 -1.629949
v 0.577387 0.501122 -1.855719
v 1.383078 0.501122 -1.913269
v 0.777483 0.501122 -1.579427
v 0.767921 0.501122 -1.701352
v 0.696200 0.501122 -1.502925
v 1.203025 0.501122 -1.732431
v 1.200634 0.501122 -1.340359
v 1.076319 0.501122 -1.163449
vt 0.9999 0.2267
vt 0.6936 0.9160
vt 0.6185 0.6997
vt 0.7839 0.3274
vt 0.5009 0.8288
vt 0.5145 0.6526
vt 0.3287 0.9160
vt 0.4215 0.6997
vt 0.0001 0.0983
vt 0.2440 0.2581
vt 0.3609 0.0001
vt 0.4388 0.2050
vt 0.0001 0.0001
vt 0.9656 0.0001
vt 0.9656 0.9999
vt 0.0001 0.9999
vt 0.0001 0.0001
vt 0.4937 0.0001
vt 0.4937 0.9999
vt 0.0001 0.9999
vt 0.0001 0.0001
vt 0.9964 0.0001
vt 0.9964 0.9999
vt 0.0001 0.9999
vt 0.0001 0.0001
vt 0.9939 0.0001
vt 0.9939 0.9999
vt 0.0001 0.9999
vt 0.0000 0.0000
vt 0.1736 0.0000
vt 0.1736 1.0000
vt 0.0000 1.0000
vt 0.1805 0.0001
vt 0.4512 0.0001
vt 0.4512 0.9999
vt 0.1805 0.9999
vt 0.0000 0.0000
vt 1.0000 0.0000
vt 1.0000 1.0000
vt 0.0000 1.0000
vt 0.0000 0.0000
vt 1.0000 0.0000
vt 1.0000 1.0000
vt 0.0000 1.0000
vt 0.0000 0.0000
vt 1.0000 0.0000
vt 1.0000 1.0000
vt 0.0000 1.0000
vt 0.0000 0.0000
vt 1.0000 0.0000
vt 1.0000 1.0000
vt 0.0000 1.0000
vt 0.0000 0.0000
vt 1.0000 0.0000
vt 1.0000 1.0000
vt 0.0000 1.0000
vt 0.0000 0.0000
vt 1.0000 0.0000
vt 1.0000 1.0000
vt 0.0000 1.0000
vn 0.0000 1.0000 0.0000
vn -0.0712 0.0000 -0.9975
vn 0.8182 0.0000 0.5749
vn -0.6661 0.0000 0.7459
vn 1.0000 0.0000 0.0061
vn -0.6854 0.0000 -0.7282
vn -0.9969 0.0000 0.0782
vn -0.8182 0.0000 -0.5749
vn 0.0712 0.0000 0.9975
vn 0.9969 0.0000 -0.0782
vn 0.6661 0.0000 -0.7459
vn -1.0000 0.0000 -0.0061
vn 0.6854 0.0000 0.7282
usemtl wall2
s off
f 66/112/25 65/113/25 68/114/25 70/115/25
f 65/113/25 64/116/25 67/117/25 68/114/25
f 63/118/25 69/119/25 67/117/25 64/116/25
f 62/120/25 72/121/25 69/119/25 63/118/25
f 54/122/25 71/123/25 72/121/25 62/120/25
f 54/122/25 66/112/25 70/115/25 71/123/25
usemtl wall2_wallTexture1.png
f 52/124/26 51/125/26 65/126/26 66/127/26
f 55/128/27 53/129/27 54/130/27 62/131/27
f 49/132/28 55/133/28 62/134/28 63/135/28
f 53/136/29 52/137/29 66/138/29 54/139/29
f 50/140/30 49/141/30 63/142/30 64/143/30
f 51/144/31 50/145/31 64/146/31 65/147/31
usemtl wall2_NONE
f 60/148/32 61/149/32 72/150/32 71/151/32
f 58/152/33 59/153/33 70/154/33 68/155/33
f 57/156/34 58/157/34 68/158/34 67/159/34
f 61/160/35 56/161/35 69/162/35 72/163/35
f 59/164/36 60/165/36 71/166/36 70/167/36
f 56/168/37 57/169/37 67/170/37 69/171/37
