# Blender v2.78 (sub 0) OBJ File: 'polisModel.blend'
# www.blender.org
mtllib polisModel2.mtl
o Plane
v 1.555310 0.000000 -1.008887
v 0.723274 0.000000 -1.476461
v 1.277424 0.000000 -1.483271
v 0.453297 -0.000001 -0.998582
v 1.283585 0.000000 -0.529640
v 0.729435 0.000000 -0.528018
v 1.466278 0.000000 -1.008121
v 0.768541 -0.000000 -1.400224
v 1.233246 0.000000 -1.405934
v 0.542142 -0.000000 -0.999480
v 1.238412 0.000000 -0.606230
v 0.773708 0.000000 -0.604870
v 1.320031 -0.000000 -1.006864
v 0.842898 -0.000000 -1.274996
v 1.160677 -0.000000 -1.278900
v 0.688079 -0.000000 -1.000954
v 1.164210 -0.000000 -0.732038
v 0.846431 -0.000000 -0.731108
v 1.186382 -0.000000 -1.005714
v 0.910850 -0.000000 -1.160554
v 1.094359 -0.000000 -1.162809
v 0.821446 -0.000000 -1.002302
v 1.096399 -0.000000 -0.847009
v 0.912890 -0.000000 -0.846472
v 1.555310 -0.070000 -1.008887
v 0.723274 -0.070000 -1.476461
v 1.277424 -0.070000 -1.483271
v 0.453297 -0.070001 -0.998582
v 1.283585 -0.070000 -0.529640
v 0.729435 -0.070000 -0.528018
v 1.466278 -0.070000 -1.008121
v 0.768541 -0.070000 -1.400224
v 1.233246 -0.070000 -1.405934
v 0.542142 -0.070000 -0.999480
v 1.238412 -0.070000 -0.606230
v 0.773708 -0.070000 -0.604870
v 1.320031 -0.070000 -1.006864
v 0.842898 -0.070000 -1.274996
v 1.160677 -0.070000 -1.278900
v 0.688079 -0.070000 -1.000954
v 1.164210 -0.070000 -0.732038
v 0.846431 -0.070000 -0.731108
v 1.186382 -0.070000 -1.005714
v 0.910850 -0.070000 -1.160554
v 1.094359 -0.070000 -1.162809
v 0.821446 -0.070000 -1.002302
v 1.096399 -0.070000 -0.847009
v 0.912890 -0.070000 -0.846472
vt 0.6329 0.3987
vt 0.5124 0.2266
vt 0.7216 0.3478
vt 0.5128 0.1149
vt 0.8186 0.2920
vt 0.6329 0.5380
vt 0.7216 0.5889
vt 0.8186 0.6447
vt 0.5103 0.7092
vt 0.5096 0.8207
vt 0.3021 0.5882
vt 0.3907 0.5375
vt 0.5109 0.6074
vt 0.3023 0.3489
vt 0.2055 0.2936
vt 0.2052 0.6437
vt 0.5121 0.3287
vt 0.3908 0.3993
vt 0.5158 0.2130
vt 0.3892 0.3939
vt 0.2960 0.3404
vt 0.5155 0.0956
vt 0.1940 0.2818
vt 0.3892 0.5403
vt 0.2960 0.5939
vt 0.1940 0.6526
vt 0.5181 0.7204
vt 0.5174 0.6133
vt 0.5188 0.8375
vt 0.7369 0.5931
vt 0.6438 0.5399
vt 0.7367 0.3415
vt 0.6437 0.3946
vt 0.8385 0.2835
vt 0.5161 0.3204
vt 0.8387 0.6514
vt 0.0000 0.0000
vt 0.0000 0.0000
vt 0.0000 0.0000
vt 0.0000 0.0000
vt 0.0000 0.0000
vt 0.0000 0.0000
vt 0.0000 0.0000
vt 0.0000 0.0000
vt 0.0000 0.0000
vt 0.0000 0.0000
vt 0.0000 0.0000
vt 0.0000 0.0000
vt 0.0000 0.0000
vt 0.0000 0.0000
vt 0.0000 0.0000
vt 0.0000 0.0000
vt 0.0000 0.0000
vt 0.0000 0.0000
vt 0.0000 0.0000
vt 0.0000 0.0000
vt 0.0000 0.0000
vt 0.0000 0.0000
vt 0.0000 0.0000
vt 0.0000 0.0000
vt 0.0000 0.0000
vt 0.0000 0.0000
vt 0.0000 0.0000
vt 0.0000 0.0000
vn -0.0000 1.0000 -0.0000
vn 0.0000 -1.0000 0.0000
vn -0.1135 -0.9916 0.0620
vn 0.0760 0.9966 -0.0311
vn -0.8625 0.0000 0.5061
vn -0.8707 0.0000 -0.4919
vn -0.0123 0.0000 -0.9999
vn 0.0029 0.0000 1.0000
vn 0.8699 0.0000 0.4932
vn 0.8629 0.0000 -0.5054
usemtl Material.003
s off
f 19/1/1 17/2/1 13/3/1
f 13/3/1 11/4/1 7/5/1
f 21/6/1 13/3/1 15/7/1
f 15/7/1 7/5/1 9/8/1
f 14/9/1 21/6/1 15/7/1
f 8/10/1 15/7/1 9/8/1
f 8/10/1 16/11/1 14/9/1
f 14/9/1 22/12/1 20/13/1
f 18/14/1 22/12/1 16/11/1
f 12/15/1 16/11/1 10/16/1
f 17/2/1 12/15/1 11/4/1
f 23/17/1 18/14/1 17/2/1
f 20/13/1 24/18/1 23/17/1
f 41/19/2 43/20/2 37/21/2
f 35/22/2 37/21/2 31/23/2
f 37/21/2 45/24/2 39/25/2
f 31/23/2 39/25/2 33/26/2
f 38/27/2 45/24/2 44/28/2
f 32/29/2 39/25/2 38/27/2
f 40/30/2 32/29/2 38/27/2
f 46/31/2 38/27/2 44/28/2
f 42/32/2 46/31/2 48/33/2
f 36/34/2 40/30/2 42/32/2
f 36/34/2 41/19/2 35/22/2
f 42/32/2 47/35/2 41/19/2
f 47/35/2 44/28/2 43/20/2
f 19/1/1 23/17/1 17/2/1
f 13/3/1 17/2/1 11/4/1
f 21/6/1 19/1/1 13/3/1
f 15/7/1 13/3/1 7/5/1
f 14/9/1 20/13/1 21/6/1
f 8/10/1 14/9/1 15/7/1
f 8/10/1 10/16/1 16/11/1
f 14/9/1 16/11/1 22/12/1
f 18/14/1 24/18/1 22/12/1
f 12/15/1 18/14/1 16/11/1
f 17/2/1 18/14/1 12/15/1
f 23/17/1 24/18/1 18/14/1
f 23/17/1 19/1/1 20/13/1
f 21/6/1 20/13/1 19/1/1
f 22/12/1 24/18/1 20/13/1
f 41/19/2 47/35/2 43/20/2
f 35/22/2 41/19/2 37/21/2
f 37/21/2 43/20/2 45/24/2
f 31/23/2 37/21/2 39/25/2
f 38/27/2 39/25/2 45/24/2
f 32/29/2 33/26/2 39/25/2
f 40/30/2 34/36/2 32/29/2
f 46/31/2 40/30/2 38/27/2
f 42/32/2 40/30/2 46/31/2
f 36/34/2 34/36/2 40/30/2
f 36/34/2 42/32/2 41/19/2
f 42/32/2 48/33/2 47/35/2
f 45/24/2 43/20/2 44/28/2
f 47/35/2 48/33/2 44/28/2
f 46/31/2 44/28/2 48/33/2
usemtl Material.003_NONE
f 2/37/2 14/38/2 20/39/2
f 26/40/3 38/41/3 44/42/3
f 2/37/1 8/43/1 14/38/1
f 26/40/4 32/44/4 38/41/4
usemtl Material
f 7/45/1 5/46/1 1/47/1
f 9/48/1 1/47/1 3/49/1
f 2/37/1 9/48/1 3/49/1
f 2/37/1 10/50/1 8/43/1
f 6/51/1 10/50/1 4/52/1
f 11/53/1 6/51/1 5/46/1
f 31/54/1 29/55/1 25/56/1
f 33/57/1 25/56/1 27/58/1
f 26/40/1 33/57/1 27/58/1
f 26/40/1 34/59/1 32/44/1
f 30/60/1 34/59/1 28/61/1
f 35/62/1 30/60/1 29/55/1
f 4/52/5 30/60/5 6/51/5
f 4/52/6 26/40/6 28/61/6
f 2/37/7 27/58/7 26/40/7
f 6/51/8 29/55/8 5/46/8
f 5/46/9 25/56/9 1/47/9
f 1/47/10 27/58/10 3/49/10
f 7/45/1 11/53/1 5/46/1
f 9/48/1 7/45/1 1/47/1
f 2/37/1 8/43/1 9/48/1
f 2/37/1 4/52/1 10/50/1
f 6/51/1 12/63/1 10/50/1
f 11/53/1 12/63/1 6/51/1
f 31/54/1 35/62/1 29/55/1
f 33/57/1 31/54/1 25/56/1
f 26/40/1 32/44/1 33/57/1
f 26/40/1 28/61/1 34/59/1
f 30/60/1 36/64/1 34/59/1
f 35/62/1 36/64/1 30/60/1
f 4/52/5 28/61/5 30/60/5
f 4/52/6 2/37/6 26/40/6
f 2/37/7 3/49/7 27/58/7
f 6/51/8 30/60/8 29/55/8
f 5/46/9 29/55/9 25/56/9
f 1/47/10 25/56/10 27/58/10
