# Blender v2.78 (sub 0) OBJ File: 'startupshell-logo3D.blend'
# www.blender.org
mtllib startupshell-logo3D_red.mtl
o Model
v 0.209419 1.475782 -0.595922
v 0.000000 1.726082 -0.365814
v 0.000000 1.444960 -0.294611
v 0.000000 2.378317 -1.267703
v 0.000000 2.148465 -0.047543
v -0.005281 1.542870 -1.719952
v 0.000000 2.294166 -1.942096
v 0.000000 2.295162 -1.942599
v 0.158976 2.648151 -2.828611
v -0.001693 1.726830 -3.149515
v 0.000000 2.525566 -3.177644
v 0.357081 2.042228 -3.700074
v 0.000000 2.878361 -3.625345
v 0.000000 2.533974 -4.028156
v 0.000000 2.282745 -4.418005
v 0.182965 1.527918 -4.113698
v 0.000000 1.234282 -3.642433
v 0.000000 0.884783 -3.077022
v 0.266819 0.932861 -2.278468
v 0.000000 1.259679 -1.705066
v 0.079818 0.972201 -1.114052
v 0.000000 1.130303 -1.474661
v 0.000000 0.778129 -1.642210
v 0.000000 0.141589 -1.575745
v 0.000000 0.488673 -2.556118
v 0.319137 0.119355 -3.115139
v 0.182965 0.127215 -4.195110
v 0.000000 1.442872 -4.872934
v 0.000000 1.996168 -4.967800
v 0.314954 1.866291 -5.454939
v 0.000000 2.105951 -5.268172
v 0.000000 1.996168 -5.685636
v 0.000000 1.996168 -6.237800
v 0.000000 1.086844 -5.425576
v 0.079818 1.157061 -0.502094
v 0.000000 0.644447 -0.366489
v 0.000000 2.928750 -2.263016
v -0.461474 1.475782 -0.595922
v -0.252055 1.726082 -0.365814
v -0.252055 1.444960 -0.294611
v -0.252055 2.378317 -1.267703
v -0.252055 2.148465 -0.047543
v -0.246774 1.542870 -1.719952
v -0.252055 2.294166 -1.942096
v -0.252055 2.295162 -1.942599
v -0.411031 2.648151 -2.828611
v -0.250362 1.726830 -3.149515
v -0.252055 2.525566 -3.177644
v -0.609136 2.042228 -3.700074
v -0.252055 2.878361 -3.625345
v -0.252055 2.533974 -4.028156
v -0.252055 2.282745 -4.418005
v -0.435020 1.527918 -4.113698
v -0.252055 1.234282 -3.642433
v -0.252055 0.884783 -3.077022
v -0.518874 0.932861 -2.278468
v -0.252055 1.259679 -1.705066
v -0.331873 0.972201 -1.114052
v -0.252055 1.130303 -1.474661
v -0.252055 0.778129 -1.642210
v -0.252055 0.141589 -1.575745
v -0.252055 0.488673 -2.556118
v -0.571192 0.119355 -3.115139
v -0.435020 0.127215 -4.195110
v -0.252055 1.442872 -4.872934
v -0.252055 1.996168 -4.967800
v -0.567009 1.866291 -5.454939
v -0.252055 2.105951 -5.268172
v -0.252055 1.996168 -5.685636
v -0.252055 1.996168 -6.237800
v -0.252055 1.086844 -5.425576
v -0.331873 1.157061 -0.502094
v -0.252055 0.644447 -0.366489
v -0.252055 2.928750 -2.263016
vt 0.5639 0.0763
vt 0.5339 0.0434
vt 0.5713 0.0339
vt 0.4474 0.1655
vt 0.4775 0.0000
vt 0.5589 0.2272
vt 0.4589 0.2571
vt 0.4588 0.2571
vt 0.4096 0.3784
vt 0.5349 0.4212
vt 0.4286 0.4246
vt 0.4874 0.4983
vt 0.3818 0.4852
vt 0.4278 0.5401
vt 0.4614 0.5931
vt 0.5588 0.5535
vt 0.6006 0.4883
vt 0.6469 0.4117
vt 0.6359 0.3053
vt 0.5965 0.2254
vt 0.6332 0.1459
vt 0.9471 0.8721
vt 0.9453 0.7823
vt 0.9508 0.8364
vt 0.6136 0.1942
vt 0.6605 0.2171
vt 0.7452 0.2083
vt 0.6994 0.3412
vt 0.7437 0.4196
vt 0.7452 0.5652
vt 0.5733 0.6552
vt 0.4997 0.6678
vt 0.5122 0.7363
vt 0.8638 0.1022
vt 0.9096 0.1310
vt 0.9029 0.1719
vt 0.9113 0.0747
vt 0.9177 0.0000
vt 0.6209 0.7304
vt 0.6084 0.0627
vt 0.6778 0.0440
vt 0.3746 0.3003
vt 0.8901 0.7993
vt 0.9008 0.7642
vt 0.9346 0.7642
vt 0.9453 0.7993
vt 0.5002 0.8402
vt 0.9008 0.7250
vt 0.9346 0.7250
vt 0.9008 0.6738
vt 0.9346 0.6738
vt 0.9875 0.0000
vt 0.9836 0.1668
vt 0.9506 0.1671
vt 0.9545 0.0003
vt 0.9875 0.2581
vt 0.9545 0.2584
vt 0.4193 0.8402
vt 0.4531 0.8402
vt 0.4531 0.9313
vt 0.4193 0.9313
vt 0.8986 0.5364
vt 0.8763 0.4583
vt 0.9506 0.4654
vt 0.9314 0.5395
vt 0.8975 0.4133
vt 0.9304 0.4164
vt 0.9130 0.3521
vt 0.9458 0.3552
vt 0.9077 0.2981
vt 0.9405 0.3013
vt 0.9358 0.1750
vt 0.9377 0.2489
vt 0.9049 0.2458
vt 0.9425 0.1342
vt 0.9441 0.0779
vt 0.9506 0.0031
vt 0.8203 0.5164
vt 0.8538 0.5134
vt 0.8638 0.6708
vt 0.8302 0.6738
vt 0.8621 0.3016
vt 0.7798 0.3090
vt 0.7452 0.1844
vt 0.8638 0.1738
vt 0.7782 0.1411
vt 0.8118 0.1381
vt 0.7642 0.0030
vt 0.7978 0.0000
vt 0.8638 0.6709
vt 0.8638 0.5840
vt 0.8976 0.5840
vt 0.8976 0.6709
vt 0.8638 0.5395
vt 0.8976 0.5395
vt 1.0000 0.7883
vt 0.9843 0.8400
vt 1.0000 0.6775
vt 0.9665 0.6738
vt 0.9346 0.8708
vt 0.9008 0.8708
vt 0.2439 0.1075
vt 0.2701 0.0000
vt 0.1452 0.1049
vt 0.1698 0.7635
vt 0.1676 0.8028
vt 0.2053 0.7948
vt 0.2965 0.6763
vt 0.2599 0.8404
vt 0.1877 0.6101
vt 0.2886 0.5843
vt 0.2887 0.5843
vt 0.3374 0.4672
vt 0.2191 0.4173
vt 0.3255 0.4181
vt 0.2579 0.3468
vt 0.3746 0.3595
vt 0.3308 0.3028
vt 0.2993 0.2485
vt 0.1944 0.2866
vt 0.1560 0.3476
vt 0.1068 0.4222
vt 0.1049 0.5326
vt 0.1499 0.6105
vt 0.1075 0.6895
vt 0.9021 0.5395
vt 0.8976 0.5712
vt 0.9021 0.6211
vt 0.0856 0.6162
vt 0.1316 0.6410
vt 0.0006 0.6215
vt 0.0516 0.4906
vt 0.0000 0.4147
vt 0.0086 0.2674
vt 0.1898 0.1819
vt 0.2639 0.1722
vt 0.3746 0.9385
vt 0.4175 0.9892
vt 0.4193 0.9465
vt 0.4185 0.9050
vt 0.4193 0.8402
vt 0.1290 0.7736
vt 0.0615 0.7884
vt 0.3746 0.5445
vn 0.8054 0.1455 0.5746
vn 0.8498 0.4271 0.3089
vn 1.0000 0.0000 0.0000
vn 0.9791 0.0921 -0.1815
vn 1.0000 -0.0068 0.0008
vn 0.9697 0.1102 0.2179
vn 0.9793 0.0511 0.1960
vn 0.9860 -0.1654 -0.0188
vn 0.9121 -0.0164 -0.4097
vn 0.8330 0.0177 0.5530
vn 0.8916 0.3557 0.2803
vn 0.8543 0.3950 -0.3377
vn 0.8559 0.4347 -0.2801
vn 0.9003 0.0436 -0.4332
vn 0.9121 -0.3954 0.1077
vn 0.8630 -0.3558 0.3585
vn 1.0000 0.0021 0.0013
vn 0.9486 -0.0252 -0.3154
vn 0.9283 0.3685 0.0498
vn 0.9141 0.0383 0.4036
vn 0.9823 0.0085 -0.1871
vn 0.9823 -0.0775 -0.1704
vn 0.4363 -0.7846 -0.4406
vn 0.9164 0.0518 0.3969
vn 0.9178 0.0412 0.3949
vn 0.8866 -0.4361 -0.1544
vn 0.8903 -0.3625 -0.2756
vn 0.8927 0.3586 0.2727
vn 0.9151 0.3872 -0.1126
vn 0.9892 0.1249 0.0772
vn 0.9362 -0.0204 0.3508
vn 0.9717 0.0137 -0.2357
vn 0.9600 0.1334 -0.2463
vn 0.8471 0.0898 0.5238
vn 0.6764 0.6918 0.2528
vn 0.5050 0.8347 -0.2195
vn 0.3812 0.9245 0.0000
vn 0.9053 -0.3571 0.2301
vn 0.9924 0.1036 -0.0668
vn 0.9316 -0.3479 0.1051
vn 0.9888 -0.1426 0.0431
vn 0.8172 -0.1702 0.5506
vn 0.0000 -0.5847 0.8113
vn 0.8448 -0.3564 -0.3990
vn 0.0000 0.2455 0.9694
vn 0.0000 -0.6018 0.7987
vn 0.0000 0.9827 0.1851
vn 0.0000 0.9925 -0.1223
vn 0.0000 0.4513 0.8924
vn 0.0000 0.8958 -0.4444
vn 0.0000 0.9435 -0.3314
vn 0.0000 0.7854 0.6189
vn 0.0000 0.7601 -0.6498
vn 0.0000 0.8868 -0.4622
vn 0.0000 0.9392 0.3433
vn 0.0000 0.8406 -0.5417
vn 0.0000 0.9671 -0.2543
vn 0.0000 1.0000 0.0000
vn 0.0000 -0.6662 -0.7458
vn 0.0000 -0.7885 -0.6150
vn 0.0000 -1.0000 -0.0073
vn 0.0000 -0.8344 0.5512
vn 0.0000 -0.9427 -0.3337
vn 0.0000 0.1039 0.9946
vn 0.0000 -0.4296 0.9030
vn 0.0000 -0.9158 -0.4015
vn 0.0000 0.2557 0.9667
vn -0.8448 -0.3564 -0.3990
vn -0.8054 0.1455 0.5746
vn -0.8498 0.4271 0.3089
vn -1.0000 0.0000 0.0000
vn -0.9791 0.0921 -0.1815
vn -1.0000 -0.0068 0.0008
vn 0.9697 -0.1102 -0.2179
vn -0.9793 0.0511 0.1960
vn -0.9860 -0.1654 -0.0188
vn -0.9121 -0.0164 -0.4097
vn -0.8330 0.0177 0.5530
vn -0.8916 0.3557 0.2803
vn -0.8543 0.3950 -0.3377
vn -0.8559 0.4347 -0.2801
vn -0.9003 0.0436 -0.4332
vn -0.9121 -0.3954 0.1077
vn -0.8630 -0.3558 0.3585
vn -1.0000 0.0021 0.0013
vn -0.9486 -0.0252 -0.3154
vn -0.9283 0.3685 0.0498
vn -0.9141 0.0383 0.4036
vn -0.9823 0.0085 -0.1871
vn -0.9823 -0.0775 -0.1704
vn -0.4363 -0.7846 -0.4406
vn -0.9164 0.0518 0.3969
vn -0.9178 0.0412 0.3949
vn -0.8866 -0.4361 -0.1544
vn -0.8903 -0.3625 -0.2756
vn -0.8927 0.3586 0.2727
vn -0.9151 0.3872 -0.1126
vn -0.9892 0.1249 0.0772
vn -0.9362 -0.0204 0.3508
vn -0.9717 0.0137 -0.2357
vn -0.9600 0.1334 -0.2463
vn -0.8471 0.0898 0.5238
vn -0.6764 0.6918 0.2528
vn -0.5050 0.8347 -0.2195
vn -0.3812 0.9245 0.0000
vn -0.9053 -0.3571 0.2301
vn -0.9924 0.1036 -0.0668
vn -0.9316 -0.3479 0.1051
vn -0.9888 -0.1426 0.0431
vn -0.8172 -0.1702 0.5506
vn -0.9697 0.1102 0.2179
usemtl Material.001
s off
f 1/1/1 2/2/1 3/3/1
f 1/1/2 4/4/2 2/2/2
f 2/2/3 4/4/3 5/5/3
f 1/1/4 6/6/4 4/4/4
f 7/7/5 4/4/5 6/6/5
f 4/4/3 7/7/3 8/8/3
f 8/8/6 7/7/6 9/9/6
f 9/9/7 7/7/7 6/6/7
f 10/10/8 9/9/8 6/6/8
f 11/11/9 9/9/9 10/10/9
f 12/12/10 11/11/10 10/10/10
f 12/12/11 13/13/11 11/11/11
f 14/14/12 13/13/12 12/12/12
f 15/15/13 14/14/13 12/12/13
f 15/15/14 12/12/14 16/16/14
f 16/16/15 12/12/15 17/17/15
f 12/12/16 10/10/16 17/17/16
f 17/17/17 10/10/17 18/18/17
f 10/10/18 19/19/18 18/18/18
f 10/10/19 6/6/19 19/19/19
f 19/19/20 6/6/20 20/20/20
f 6/6/21 1/1/21 20/20/21
f 1/1/22 21/21/22 20/20/22
f 20/22/23 21/23/23 22/24/23
f 20/20/3 22/25/3 23/26/3
f 23/26/24 19/19/24 20/20/24
f 19/19/25 23/26/25 24/27/25
f 25/28/26 19/19/26 24/27/26
f 18/18/27 19/19/27 25/28/27
f 26/29/28 18/18/28 25/28/28
f 27/30/29 18/18/29 26/29/29
f 27/30/30 17/17/30 18/18/30
f 27/30/31 16/16/31 17/17/31
f 28/31/32 16/16/32 27/30/32
f 28/31/33 15/15/33 16/16/33
f 29/32/3 15/15/3 28/31/3
f 30/33/34 29/32/34 28/31/34
f 30/34/35 31/35/35 29/36/35
f 32/37/36 31/35/36 30/34/36
f 33/38/37 32/37/37 30/34/37
f 30/33/38 28/31/38 34/39/38
f 34/39/39 28/31/39 27/30/39
f 1/1/40 35/40/40 21/21/40
f 21/21/41 35/40/41 36/41/41
f 1/1/42 3/3/42 35/40/42
f 8/8/6 9/9/6 37/42/6
f 35/43/43 3/44/43 40/45/43 72/46/43
f 30/33/44 34/39/44 33/47/44
f 3/44/45 2/48/45 39/49/45 40/45/45
f 5/50/46 42/51/46 39/49/46 2/48/46
f 5/52/47 4/53/47 41/54/47 42/55/47
f 8/56/48 45/57/48 41/54/48 4/53/48
f 37/58/49 74/59/49 45/60/49 8/61/49
f 37/62/50 9/63/50 46/64/50 74/65/50
f 11/66/51 48/67/51 46/64/51 9/63/51
f 13/68/52 50/69/52 48/67/52 11/66/52
f 14/70/53 51/71/53 50/69/53 13/68/53
f 29/36/54 66/72/54 52/73/54 15/74/54
f 31/35/55 68/75/55 66/72/55 29/36/55
f 15/74/56 52/73/56 51/71/56 14/70/56
f 32/37/57 69/76/57 68/75/57 31/35/57
f 33/38/58 70/77/58 69/76/58 32/37/58
f 34/78/59 71/79/59 70/80/59 33/81/59
f 64/82/60 71/79/60 34/78/60 27/83/60
f 27/83/61 26/84/61 63/85/61 64/82/61
f 63/85/62 26/84/62 25/86/62 62/87/62
f 25/86/63 24/88/63 61/89/63 62/87/63
f 24/90/64 23/91/64 60/92/64 61/93/64
f 23/91/65 22/94/65 59/95/65 60/92/65
f 22/24/66 21/23/66 58/96/66 59/97/66
f 73/98/66 58/96/66 21/23/66 36/99/66
f 73/100/67 36/101/67 35/43/67 72/46/67
usemtl None
f 67/102/68 70/103/68 71/104/68
f 38/105/69 40/106/69 39/107/69
f 38/105/70 39/107/70 41/108/70
f 39/107/71 42/109/71 41/108/71
f 38/105/72 41/108/72 43/110/72
f 44/111/73 43/110/73 41/108/73
f 41/108/3 44/111/3 45/112/3
f 45/112/74 44/111/74 46/113/74
f 46/113/75 43/110/75 44/111/75
f 47/114/76 43/110/76 46/113/76
f 48/115/77 47/114/77 46/113/77
f 49/116/78 47/114/78 48/115/78
f 49/116/79 48/115/79 50/117/79
f 51/118/80 49/116/80 50/117/80
f 52/119/81 49/116/81 51/118/81
f 52/119/82 53/120/82 49/116/82
f 53/120/83 54/121/83 49/116/83
f 49/116/84 54/121/84 47/114/84
f 54/121/85 55/122/85 47/114/85
f 47/114/86 55/122/86 56/123/86
f 47/114/87 56/123/87 43/110/87
f 56/123/88 57/124/88 43/110/88
f 43/110/89 57/124/89 38/105/89
f 38/105/90 57/124/90 58/125/90
f 57/126/91 59/127/91 58/128/91
f 57/124/71 60/129/71 59/130/71
f 60/129/92 57/124/92 56/123/92
f 56/123/93 61/131/93 60/129/93
f 62/132/94 61/131/94 56/123/94
f 55/122/95 62/132/95 56/123/95
f 63/133/96 62/132/96 55/122/96
f 64/134/97 63/133/97 55/122/97
f 64/134/98 55/122/98 54/121/98
f 64/134/99 54/121/99 53/120/99
f 65/135/100 64/134/100 53/120/100
f 65/135/101 53/120/101 52/119/101
f 66/136/71 65/135/71 52/119/71
f 67/102/102 65/135/102 66/136/102
f 67/137/103 66/138/103 68/139/103
f 69/140/104 67/137/104 68/139/104
f 70/141/105 67/137/105 69/140/105
f 67/102/106 71/104/106 65/135/106
f 71/104/107 64/134/107 65/135/107
f 38/105/108 58/125/108 72/142/108
f 58/125/109 73/143/109 72/142/109
f 38/105/110 72/142/110 40/106/110
f 45/112/111 74/144/111 46/113/111
