# Blender v2.78 (sub 0) OBJ File: 'tRowShell.blend'
# www.blender.org
mtllib tRowShellDouble.mtl
o Plane
v 0.998605 0.000005 -1.842456
v 1.642441 0.000004 -1.563606
v 0.991951 0.000002 -1.842456
v 1.629301 0.000004 -1.594265
v 1.664340 0.000004 -1.489149
v 1.689193 0.000003 -1.389567
v 1.697953 0.000003 -1.295111
v 1.699582 0.000003 -1.211993
v 1.695915 0.000003 -1.083649
v 1.672691 0.000003 -0.943081
v 1.629910 0.000003 -0.801291
v 1.557792 0.000003 -0.648908
v 1.477119 0.000003 -0.526675
v 1.402557 0.000003 -0.442335
v 1.269731 0.000003 -0.326621
v 1.002041 0.000003 -0.160792
v 0.348115 0.000003 -1.563606
v 0.361255 0.000003 -1.594265
v 0.326216 0.000003 -1.489149
v 0.301363 0.000004 -1.389567
v 0.292603 0.000004 -1.295111
v 0.290974 0.000004 -1.211993
v 0.294641 0.000004 -1.083649
v 0.317865 0.000004 -0.943081
v 0.360646 0.000004 -0.801291
v 0.432764 0.000004 -0.648908
v 0.513437 0.000004 -0.526675
v 0.587999 0.000004 -0.442335
v 0.720825 0.000004 -0.326621
v 0.988515 0.000004 -0.160792
v 0.729283 0.043538 -1.655096
v 0.437391 0.043538 -1.525529
v 0.402715 0.018920 -1.374938
v 0.702623 0.055744 -1.368093
v 0.784532 0.043538 -1.645806
v 0.823945 0.070641 -1.172031
v 0.783048 0.071683 -1.391562
v 0.993289 0.071683 -1.728436
v 0.879856 0.071683 -1.664875
v 1.027042 0.071683 -1.728436
v 1.140474 0.071683 -1.664875
v 1.237283 0.071683 -1.391562
v 1.134607 0.091557 -1.213591
v 0.747269 0.061226 -1.317733
v 0.885724 0.091557 -1.213591
v 0.402715 0.018920 -1.293287
v 0.728828 0.058962 -1.015573
v 0.414362 0.020351 -1.033175
v 0.415330 0.030708 -0.961394
v 0.693068 0.064810 -0.945578
v 0.823483 0.080823 -0.759435
v 0.703936 0.066145 -0.477179
v 0.511935 0.042570 -0.648722
v 0.439481 0.033674 -0.787417
v 0.410500 0.030115 -0.888397
v 0.894726 0.100003 -0.752135
v 0.801046 0.100003 -0.948011
v 0.912976 0.100003 -1.145104
v 0.905676 0.076334 -0.685546
v 0.752382 0.053537 -0.424968
v 1.286095 0.057177 -1.655096
v 1.575812 0.021604 -1.525529
v 1.611723 0.017195 -1.374938
v 1.311816 0.054019 -1.368093
v 1.231258 0.063910 -1.645806
v 1.190494 0.068916 -1.172031
v 1.267169 0.059501 -1.317733
v 1.611723 0.017195 -1.293287
v 1.285610 0.057237 -1.015573
v 1.600076 0.018625 -1.033175
v 1.599214 0.030708 -0.961394
v 1.321476 0.064810 -0.945578
v 1.191061 0.080823 -0.759435
v 1.310608 0.066145 -0.477179
v 1.502609 0.042570 -0.648722
v 1.575063 0.033674 -0.787417
v 1.604044 0.030115 -0.888397
v 1.119818 0.100003 -0.752135
v 1.213498 0.100003 -0.948011
v 1.101568 0.100003 -1.145104
v 1.108868 0.076334 -0.685546
v 1.262162 0.053537 -0.424968
v 0.975023 0.037843 -0.245593
v 1.017622 0.037949 -0.246805
v 1.007401 -0.055783 -1.842456
v 0.363566 -0.055782 -1.563606
v 1.014056 -0.055781 -1.842456
v 0.376706 -0.055782 -1.594265
v 0.341667 -0.055782 -1.489149
v 0.316814 -0.055781 -1.389567
v 0.308054 -0.055781 -1.295111
v 0.306424 -0.055781 -1.211993
v 0.310091 -0.055781 -1.083649
v 0.333316 -0.055781 -0.943081
v 0.376097 -0.055781 -0.801291
v 0.448214 -0.055781 -0.648908
v 0.528888 -0.055781 -0.526675
v 0.603450 -0.055781 -0.442335
v 0.736276 -0.055781 -0.326621
v 1.003965 -0.055781 -0.160792
v 1.657891 -0.055781 -1.563606
v 1.644752 -0.055781 -1.594265
v 1.679790 -0.055781 -1.489149
v 1.704643 -0.055782 -1.389567
v 1.713403 -0.055782 -1.295111
v 1.715033 -0.055782 -1.211993
v 1.711366 -0.055782 -1.083649
v 1.688142 -0.055782 -0.943081
v 1.645360 -0.055782 -0.801291
v 1.573243 -0.055782 -0.648908
v 1.492569 -0.055782 -0.526675
v 1.418007 -0.055782 -0.442335
v 1.285181 -0.055782 -0.326621
v 1.017491 -0.055782 -0.160792
v 1.276724 -0.099316 -1.655096
v 1.568616 -0.099316 -1.525529
v 1.603291 -0.074699 -1.374938
v 1.303384 -0.111523 -1.368093
v 1.221474 -0.099316 -1.645806
v 1.182062 -0.126419 -1.172031
v 1.222959 -0.127461 -1.391562
v 1.012718 -0.127461 -1.728436
v 1.126150 -0.127461 -1.664875
v 0.978964 -0.127461 -1.728436
v 0.865532 -0.127461 -1.664875
v 0.768724 -0.127461 -1.391562
v 0.871399 -0.147335 -1.213591
v 1.258737 -0.117004 -1.317733
v 1.120283 -0.147335 -1.213591
v 1.603291 -0.074699 -1.293287
v 1.277178 -0.114740 -1.015573
v 1.591644 -0.076129 -1.033175
v 1.590676 -0.086487 -0.961394
v 1.312939 -0.120588 -0.945578
v 1.182523 -0.136601 -0.759435
v 1.302071 -0.121923 -0.477179
v 1.494072 -0.098348 -0.648722
v 1.566525 -0.089452 -0.787417
v 1.595506 -0.085893 -0.888397
v 1.111280 -0.155781 -0.752135
v 1.204960 -0.155781 -0.948011
v 1.093031 -0.155781 -1.145104
v 1.100331 -0.132112 -0.685546
v 1.253625 -0.109315 -0.424968
v 0.719911 -0.112955 -1.655096
v 0.430195 -0.077382 -1.525529
v 0.394283 -0.072973 -1.374938
v 0.694191 -0.109797 -1.368093
v 0.774749 -0.119688 -1.645806
v 0.815513 -0.124694 -1.172031
v 0.738837 -0.115279 -1.317733
v 0.394283 -0.072973 -1.293287
v 0.720396 -0.113015 -1.015573
v 0.405930 -0.074403 -1.033175
v 0.406793 -0.086486 -0.961394
v 0.684530 -0.120588 -0.945578
v 0.814946 -0.136601 -0.759435
v 0.695398 -0.121923 -0.477179
v 0.503397 -0.098348 -0.648722
v 0.430944 -0.089452 -0.787417
v 0.401963 -0.085893 -0.888397
v 0.886189 -0.155781 -0.752135
v 0.792509 -0.155781 -0.948011
v 0.904438 -0.155781 -1.145104
v 0.897138 -0.132112 -0.685546
v 0.743844 -0.109315 -0.424968
v 1.030983 -0.093621 -0.245593
v 0.988385 -0.093728 -0.246805
v 0.318637 0.001259 -1.588017
v 0.295753 0.001259 -1.510208
v 1.671223 0.001259 -1.588017
v 1.694108 0.001259 -1.510208
v 1.657492 0.001260 -1.620055
v 0.998407 0.001260 -1.879418
v 1.720080 0.001259 -1.406143
v 1.729234 0.001259 -1.307436
v 1.730937 0.001259 -1.220577
v 1.727105 0.001259 -1.086455
v 1.702835 0.001259 -0.939561
v 1.658128 0.001259 -0.791388
v 1.582765 0.001259 -0.632146
v 1.498460 0.001259 -0.504411
v 1.420542 0.001259 -0.416274
v 1.281737 0.001259 -0.295352
v 1.001998 0.001259 -0.122059
v 0.332368 0.001259 -1.620055
v 0.991453 0.001258 -1.879418
v 0.269781 0.001259 -1.406143
v 0.260627 0.001259 -1.307436
v 0.258924 0.001259 -1.220577
v 0.262756 0.001259 -1.086455
v 0.287026 0.001259 -0.939560
v 0.331733 0.001259 -0.791388
v 0.407096 0.001259 -0.632146
v 0.491401 0.001259 -0.504411
v 0.569319 0.001259 -0.416274
v 0.708124 0.001259 -0.295352
v 0.987863 0.001259 -0.122059
v 1.687369 -0.057037 -1.588017
v 1.710254 -0.057037 -1.510208
v 0.334784 -0.057037 -1.588017
v 0.311899 -0.057037 -1.510208
v 0.348515 -0.057038 -1.620055
v 1.007599 -0.057038 -1.879418
v 0.285927 -0.057037 -1.406143
v 0.276773 -0.057037 -1.307436
v 0.275070 -0.057037 -1.220577
v 0.278902 -0.057037 -1.086455
v 0.303172 -0.057037 -0.939561
v 0.347879 -0.057037 -0.791388
v 0.423242 -0.057037 -0.632146
v 0.507547 -0.057037 -0.504411
v 0.585465 -0.057037 -0.416274
v 0.724270 -0.057037 -0.295352
v 1.004009 -0.057037 -0.122059
v 1.673638 -0.057037 -1.620055
v 1.014554 -0.057036 -1.879418
v 1.736226 -0.057037 -1.406143
v 1.745380 -0.057037 -1.307436
v 1.747083 -0.057037 -1.220577
v 1.743251 -0.057037 -1.086455
v 1.718981 -0.057037 -0.939560
v 1.674274 -0.057037 -0.791388
v 1.598911 -0.057037 -0.632146
v 1.514606 -0.057037 -0.504411
v 1.436687 -0.057037 -0.416274
v 1.297883 -0.057037 -0.295352
v 1.018144 -0.057037 -0.122059
vn -0.1219 0.9925 -0.0000
vn -0.0000 1.0000 -0.0000
vn -0.0000 0.9992 -0.0412
vn -0.0000 0.9962 0.0872
vn 0.1219 0.9925 -0.0000
vn -0.0506 0.9986 0.0132
vn 0.1219 -0.9925 -0.0000
vn -0.0000 -1.0000 0.0000
vn -0.0000 -0.9992 -0.0412
vn -0.0000 -0.9962 0.0872
vn -0.1219 -0.9925 0.0000
vn 0.0506 -0.9986 0.0132
vn -0.0000 0.9925 -0.1224
vn -0.1755 0.9844 -0.0087
vn -0.3139 0.9493 -0.0199
vn -0.1923 0.8807 -0.4328
vn -0.0000 0.8466 -0.5322
vn 0.2116 0.8561 -0.4716
vn 0.1605 0.9864 -0.0340
vn 0.2755 0.9584 0.0742
vn 0.2046 0.9788 -0.0102
vn 0.2411 0.9690 -0.0535
vn -0.2663 0.9579 -0.1076
vn -0.2390 0.9697 0.0514
vn -0.3178 0.9384 -0.1354
vn -0.1673 0.9859 0.0019
vn -0.1129 0.9837 -0.1401
vn -0.3061 0.9229 -0.2335
vn -0.2911 0.9477 0.1310
vn -0.2767 0.8902 0.3619
vn -0.0000 0.9422 0.3349
vn 0.2767 0.8902 0.3619
vn 0.2911 0.9477 0.1310
vn 0.3048 0.9175 -0.2555
vn 0.3329 0.9328 -0.1380
vn 0.1111 0.9803 -0.1634
vn 0.2755 0.9610 -0.0234
vn 0.1915 0.9815 0.0026
vn -0.2257 0.9740 -0.0218
vn -0.3025 0.9531 -0.0123
vn -0.3815 0.9190 0.0993
vn 0.0430 0.9950 0.0903
vn -0.0430 0.9950 0.0903
vn 0.5721 0.7777 0.2604
vn 0.5145 0.8460 0.1397
vn 0.3894 0.9209 -0.0183
vn -0.4403 0.8771 0.1919
vn -0.3991 0.8609 0.3156
vn -0.3213 0.8532 0.4109
vn -0.2609 0.8739 0.4102
vn 0.0070 0.9140 0.4056
vn 0.2677 0.8584 0.4376
vn 0.3658 0.8114 0.4558
vn 0.4641 0.8003 0.3795
vn -0.0000 -0.9925 -0.1224
vn 0.1755 -0.9844 -0.0087
vn 0.3139 -0.9493 -0.0199
vn 0.1923 -0.8807 -0.4328
vn 0.0000 -0.8466 -0.5322
vn -0.2116 -0.8561 -0.4716
vn -0.1605 -0.9864 -0.0340
vn -0.2755 -0.9584 0.0742
vn -0.2046 -0.9788 -0.0102
vn -0.2411 -0.9690 -0.0535
vn 0.2663 -0.9579 -0.1076
vn 0.2390 -0.9697 0.0514
vn 0.3178 -0.9384 -0.1354
vn 0.1673 -0.9859 0.0019
vn 0.1129 -0.9837 -0.1401
vn 0.3061 -0.9229 -0.2335
vn 0.2911 -0.9477 0.1310
vn 0.2767 -0.8902 0.3619
vn 0.0000 -0.9422 0.3349
vn -0.2767 -0.8902 0.3619
vn -0.2911 -0.9477 0.1310
vn -0.3048 -0.9175 -0.2555
vn -0.3329 -0.9328 -0.1380
vn -0.1111 -0.9803 -0.1634
vn -0.2755 -0.9610 -0.0234
vn -0.1915 -0.9815 0.0026
vn 0.2257 -0.9740 -0.0218
vn 0.3025 -0.9531 -0.0123
vn 0.3815 -0.9190 0.0993
vn -0.0430 -0.9950 0.0903
vn 0.0430 -0.9950 0.0903
vn -0.5721 -0.7777 0.2604
vn -0.5145 -0.8460 0.1397
vn -0.3894 -0.9209 -0.0183
vn 0.4403 -0.8771 0.1919
vn 0.3991 -0.8609 0.3156
vn 0.3213 -0.8532 0.4109
vn 0.2609 -0.8739 0.4102
vn -0.0070 -0.9140 0.4056
vn -0.2677 -0.8584 0.4376
vn -0.3658 -0.8114 0.4558
vn -0.4641 -0.8003 0.3795
vn 0.0408 -0.9991 -0.0067
vn -0.0262 0.9992 -0.0301
vn 0.0403 -0.9992 -0.0012
vn -0.0306 0.9992 -0.0270
vn 0.0398 -0.9992 0.0008
vn -0.0348 0.9991 -0.0230
vn 0.0387 -0.9992 0.0036
vn -0.0381 0.9991 -0.0180
vn 0.0358 -0.9993 0.0089
vn -0.0402 0.9991 -0.0121
vn 0.0134 -0.9993 0.0340
vn -0.0408 0.9991 -0.0067
vn -0.0000 -0.9995 -0.0324
vn 0.0320 -0.9994 0.0137
vn -0.0403 0.9992 -0.0012
vn 0.0003 -0.9994 0.0340
vn 0.0349 -0.9993 0.0103
vn -0.0398 0.9992 0.0008
vn -0.0199 -0.9993 -0.0321
vn -0.0342 -0.9994 0.0101
vn -0.0387 0.9992 0.0036
vn -0.0258 -0.9992 -0.0296
vn -0.0358 0.9993 0.0089
vn -0.0301 -0.9992 -0.0266
vn -0.0134 0.9993 0.0340
vn 0.0000 0.9995 -0.0324
vn -0.0342 -0.9992 -0.0225
vn -0.0320 0.9994 0.0137
vn -0.0003 0.9994 0.0340
vn -0.0373 -0.9991 -0.0177
vn -0.9370 -0.2595 -0.2339
vn -0.9272 -0.2568 -0.2727
vn -0.8907 -0.2467 -0.3817
vn -0.3643 -0.1009 -0.9258
vn 0.3643 0.1009 -0.9258
vn 0.0000 0.0000 -1.0000
vn 0.8907 0.2467 -0.3817
vn 0.9272 0.2568 -0.2727
vn 0.9370 0.2595 -0.2339
vn 0.9599 0.2659 -0.0890
vn 0.9635 0.2669 -0.0189
vn 0.9634 0.2668 0.0275
vn 0.9517 0.2636 0.1572
vn 0.9254 0.2563 0.2792
vn 0.8768 0.2429 0.4150
vn 0.8132 0.2252 0.5367
vn 0.7336 0.2032 0.6485
vn 0.6463 0.1790 0.7418
vn 0.5211 0.1443 0.8412
vn 0.0000 0.0000 1.0000
vn -0.5211 -0.1443 0.8412
vn -0.6463 -0.1790 0.7418
vn -0.7336 -0.2032 0.6485
vn -0.8132 -0.2252 0.5367
vn -0.8768 -0.2429 0.4150
vn -0.9254 -0.2563 0.2792
vn -0.9517 -0.2636 0.1572
vn -0.9634 -0.2668 0.0275
vn -0.9635 -0.2669 -0.0189
vn -0.9599 -0.2659 -0.0890
vn -0.0201 0.9993 -0.0324
vn 0.0402 -0.9991 -0.0121
vn 0.0381 -0.9991 -0.0180
vn 0.0314 0.9994 0.0135
vn 0.0348 -0.9991 -0.0230
vn 0.0133 0.9993 0.0338
vn 0.0306 -0.9992 -0.0270
vn 0.0351 0.9993 0.0088
vn 0.0379 0.9993 0.0035
vn 0.0262 -0.9992 -0.0301
vn 0.0389 0.9992 0.0008
vn 0.0201 -0.9993 -0.0324
vn 0.0394 0.9992 -0.0011
vn -0.0314 -0.9994 0.0135
vn 0.0399 0.9992 -0.0066
vn -0.0133 -0.9993 0.0338
vn 0.0393 0.9992 -0.0119
vn -0.0351 -0.9993 0.0088
vn 0.0373 0.9991 -0.0177
vn -0.0379 -0.9993 0.0035
vn 0.0342 0.9992 -0.0225
vn -0.0389 -0.9992 0.0008
vn 0.0301 0.9992 -0.0266
vn -0.0394 -0.9992 -0.0011
vn -0.0399 -0.9992 -0.0066
vn 0.0258 0.9992 -0.0296
vn 0.0342 0.9994 0.0101
vn -0.0393 -0.9992 -0.0119
vn 0.0199 0.9993 -0.0321
vn -0.0349 0.9993 0.0103
usemtl Material.001
s off
f 50//1 49//1 55//1 54//1 53//1 52//1 51//1
f 57//2 56//2 78//2 79//2 80//2 58//2
f 39//3 37//3 45//3 43//3 42//3 41//3 40//3 38//3
f 47//1 36//1 44//1 46//1 48//1
f 81//4 59//4 60//4 83//4 84//4 82//4
f 72//5 73//5 74//5 75//5 76//5 77//5 71//5
f 69//5 70//5 68//5 67//5 66//5
f 62//5 61//5 65//5 64//5 63//5
f 32//6 33//6 34//6 35//6 31//6
f 134//7 133//7 139//7 138//7 137//7 136//7 135//7
f 141//8 140//8 162//8 163//8 164//8 142//8
f 123//9 121//9 129//9 127//9 126//9 125//9 124//9 122//9
f 131//7 120//7 128//7 130//7 132//7
f 165//10 143//10 144//10 167//10 168//10 166//10
f 156//11 157//11 158//11 159//11 160//11 161//11 155//11
f 153//11 154//11 152//11 151//11 150//11
f 146//11 145//11 149//11 148//11 147//11
f 116//12 117//12 118//12 119//12 115//12
usemtl Material.002
f 58//13 80//13 43//13 45//13
f 21//14 46//14 33//14 20//14
f 34//1 33//1 46//1 44//1
f 19//15 20//15 33//15 32//15 18//15 17//15
f 3//16 18//16 32//16 31//16 35//16 39//16 38//16
f 1//17 3//17 38//17 40//17
f 4//18 1//18 40//18 41//18 65//18 61//18 62//18
f 41//19 42//19 64//19 65//19
f 43//20 66//20 67//20 64//20 42//20
f 64//5 67//5 68//5 63//5
f 7//21 6//21 63//21 68//21
f 5//22 2//22 4//22 62//22 63//22 6//22
f 34//23 37//23 39//23 35//23
f 44//24 36//24 45//24 37//24 34//24
f 58//25 45//25 36//25 47//25 57//25
f 22//26 23//26 48//26 46//26 21//26
f 47//27 48//27 49//27 50//27
f 57//28 47//28 50//28
f 50//29 51//29 56//29 57//29
f 56//30 51//30 59//30
f 78//31 56//31 59//31 81//31
f 78//32 81//32 73//32
f 72//33 79//33 78//33 73//33
f 79//34 72//34 69//34
f 43//35 80//35 79//35 69//35 66//35
f 69//36 72//36 71//36 70//36
f 10//37 9//37 70//37 71//37
f 8//38 7//38 68//38 70//38 9//38
f 24//39 49//39 48//39 23//39
f 49//40 24//40 55//40
f 24//41 25//41 54//41 55//41
f 52//42 60//42 59//42 51//42
f 82//43 74//43 73//43 81//43
f 11//44 76//44 75//44 12//44
f 10//45 77//45 76//45 11//45
f 71//46 77//46 10//46
f 25//47 26//47 53//47 54//47
f 26//48 27//48 28//48 52//48 53//48
f 29//49 60//49 52//49 28//49
f 30//50 83//50 60//50 29//50
f 16//51 84//51 83//51 30//51
f 16//52 15//52 82//52 84//52
f 15//53 14//53 74//53 82//53
f 12//54 75//54 74//54 14//54 13//54
f 142//55 164//55 127//55 129//55
f 105//56 130//56 117//56 104//56
f 118//7 117//7 130//7 128//7
f 103//57 104//57 117//57 116//57 102//57 101//57
f 87//58 102//58 116//58 115//58 119//58 123//58 122//58
f 85//59 87//59 122//59 124//59
f 88//60 85//60 124//60 125//60 149//60 145//60 146//60
f 125//61 126//61 148//61 149//61
f 127//62 150//62 151//62 148//62 126//62
f 148//11 151//11 152//11 147//11
f 91//63 90//63 147//63 152//63
f 89//64 86//64 88//64 146//64 147//64 90//64
f 118//65 121//65 123//65 119//65
f 128//66 120//66 129//66 121//66 118//66
f 142//67 129//67 120//67 131//67 141//67
f 106//68 107//68 132//68 130//68 105//68
f 131//69 132//69 133//69 134//69
f 141//70 131//70 134//70
f 134//71 135//71 140//71 141//71
f 140//72 135//72 143//72
f 162//73 140//73 143//73 165//73
f 162//74 165//74 157//74
f 156//75 163//75 162//75 157//75
f 163//76 156//76 153//76
f 127//77 164//77 163//77 153//77 150//77
f 153//78 156//78 155//78 154//78
f 94//79 93//79 154//79 155//79
f 92//80 91//80 152//80 154//80 93//80
f 108//81 133//81 132//81 107//81
f 133//82 108//82 139//82
f 108//83 109//83 138//83 139//83
f 136//84 144//84 143//84 135//84
f 166//85 158//85 157//85 165//85
f 95//86 160//86 159//86 96//86
f 94//87 161//87 160//87 95//87
f 155//88 161//88 94//88
f 109//89 110//89 137//89 138//89
f 110//90 111//90 112//90 136//90 137//90
f 113//91 144//91 136//91 112//91
f 114//92 167//92 144//92 113//92
f 100//93 168//93 167//93 114//93
f 100//94 99//94 166//94 168//94
f 99//95 98//95 158//95 166//95
f 96//96 159//96 158//96 98//96 97//96
usemtl Material.003
f 93//97 94//97 209//97 208//97
f 14//98 15//98 184//98 183//98
f 92//99 93//99 208//99 207//99
f 13//100 14//100 183//100 182//100
f 91//101 92//101 207//101 206//101
f 12//102 13//102 182//102 181//102
f 90//103 91//103 206//103 205//103
f 11//104 12//104 181//104 180//104
f 89//105 90//105 205//105 202//105
f 10//106 11//106 180//106 179//106
f 85//107 88//107 203//107 204//107
f 9//108 10//108 179//108 178//108
f 100//109 114//109 228//109 215//109
f 88//110 86//110 201//110 203//110
f 8//111 9//111 178//111 177//111
f 87//112 85//112 204//112 217//112
f 86//113 89//113 202//113 201//113
f 7//114 8//114 177//114 176//114
f 114//115 113//115 227//115 228//115
f 103//116 101//116 199//116 200//116
f 6//117 7//117 176//117 175//117
f 113//118 112//118 226//118 227//118
f 5//119 6//119 175//119 172//119
f 112//120 111//120 225//120 226//120
f 1//121 4//121 173//121 174//121
f 16//122 30//122 198//122 185//122
f 111//123 110//123 224//123 225//123
f 4//124 2//124 171//124 173//124
f 3//125 1//125 174//125 187//125
f 110//126 109//126 223//126 224//126
f 188//127 170//127 202//127 205//127
f 170//128 169//128 201//128 202//128
f 169//129 186//129 203//129 201//129
f 186//130 187//130 204//130 203//130
f 173//131 216//131 217//131 174//131
f 174//132 217//132 204//132 187//132
f 171//133 199//133 216//133 173//133
f 172//134 200//134 199//134 171//134
f 175//135 218//135 200//135 172//135
f 176//136 219//136 218//136 175//136
f 177//137 220//137 219//137 176//137
f 178//138 221//138 220//138 177//138
f 179//139 222//139 221//139 178//139
f 180//140 223//140 222//140 179//140
f 181//141 224//141 223//141 180//141
f 182//142 225//142 224//142 181//142
f 183//143 226//143 225//143 182//143
f 184//144 227//144 226//144 183//144
f 185//145 228//145 227//145 184//145
f 185//146 198//146 215//146 228//146
f 198//147 197//147 214//147 215//147
f 197//148 196//148 213//148 214//148
f 196//149 195//149 212//149 213//149
f 195//150 194//150 211//150 212//150
f 194//151 193//151 210//151 211//151
f 193//152 192//152 209//152 210//152
f 192//153 191//153 208//153 209//153
f 191//154 190//154 207//154 208//154
f 190//155 189//155 206//155 207//155
f 189//156 188//156 205//156 206//156
f 15//157 16//157 185//157 184//157
f 94//158 95//158 210//158 209//158
f 95//159 96//159 211//159 210//159
f 17//160 18//160 186//160 169//160
f 96//161 97//161 212//161 211//161
f 18//162 3//162 187//162 186//162
f 97//163 98//163 213//163 212//163
f 20//164 19//164 170//164 188//164
f 21//165 20//165 188//165 189//165
f 98//166 99//166 214//166 213//166
f 22//167 21//167 189//167 190//167
f 99//168 100//168 215//168 214//168
f 23//169 22//169 190//169 191//169
f 101//170 102//170 216//170 199//170
f 24//171 23//171 191//171 192//171
f 102//172 87//172 217//172 216//172
f 25//173 24//173 192//173 193//173
f 104//174 103//174 200//174 218//174
f 26//175 25//175 193//175 194//175
f 105//176 104//176 218//176 219//176
f 27//177 26//177 194//177 195//177
f 106//178 105//178 219//178 220//178
f 28//179 27//179 195//179 196//179
f 107//180 106//180 220//180 221//180
f 108//181 107//181 221//181 222//181
f 29//182 28//182 196//182 197//182
f 19//183 17//183 169//183 170//183
f 109//184 108//184 222//184 223//184
f 30//185 29//185 197//185 198//185
f 2//186 5//186 172//186 171//186
